<?xml version="1.0" encoding="UTF-8"?>
<!DOCTYPE svg PUBLIC "-//W3C//DTD SVG 1.1//EN" "http://www.w3.org/Graphics/SVG/1.1/DTD/svg11.dtd">
<!-- Creator: CorelDRAW Home & Student X7 -->
<svg xmlns="http://www.w3.org/2000/svg" xml:space="preserve" width="300mm" height="300mm" version="1.1" style="shape-rendering:geometricPrecision; text-rendering:geometricPrecision; image-rendering:optimizeQuality; fill-rule:evenodd; clip-rule:evenodd"
viewBox="0 0 28700 21000"
 xmlns:xlink="http://www.w3.org/1999/xlink">
 <defs>
  <style type="text/css">
   <![CDATA[
    .str0 {stroke:#252422;stroke-width:7.62}
    .fil1 {fill:black}
    .fil0 {fill:black;fill-rule:nonzero}
   ]]>
  </style>
 </defs>
 <g id="Layer_x0020_1">
  <metadata id="CorelCorpID_0Corel-Layer"/>
  <g id="_313867872">
   <path class="fil0" d="M5167 9907c-81,-75 -149,-162 -197,-255 69,-39 136,-79 198,-121 -5,6 -9,11 -13,17 -75,121 -50,261 12,359zm-330 593c81,-58 147,-143 172,-255 26,-114 14,-208 -20,-283 145,128 332,222 530,270 -173,72 -410,167 -682,268zm-34 -761c13,22 27,44 42,65 -33,-18 -67,-31 -101,-37 20,-9 39,-18 59,-28zm-1757 1315c-192,43 -377,77 -544,99 220,-125 340,-329 388,-553 18,67 55,136 117,204 221,242 619,146 697,-36 53,-125 -1,-231 -81,-268 -116,-53 -219,0 -257,78 -36,75 -17,182 66,198 67,13 125,-48 117,-107 -3,-30 -28,-80 -85,-68 23,-69 115,-53 148,-7 29,40 25,106 -1,144 -94,145 -343,169 -530,-16 -111,-110 -138,-262 -38,-400 75,-106 261,-76 267,59 -17,-22 -43,-37 -73,-38 -52,-2 -97,39 -99,92 -2,53 39,98 92,100 176,3 187,-233 56,-327 380,-62 820,-178 1217,-336 -78,141 46,346 194,256 44,-26 56,-83 29,-126 -27,-42 -83,-55 -126,-28 -24,15 -38,39 -42,65 -59,-114 81,-227 193,-175 148,67 198,205 158,349 -66,241 -283,339 -430,265 -39,-20 -74,-73 -69,-120 5,-53 73,-110 126,-64 -53,17 -50,70 -39,97 22,52 99,76 148,33 61,-53 26,-150 -40,-195 -68,-47 -178,-41 -248,57 -49,69 -44,182 59,260 45,33 109,47 178,43 -486,174 -1048,354 -1548,465zm-469 -785c-21,-12 -41,-20 -61,-27 60,8 123,14 191,15 19,80 27,163 24,245 -12,-91 -59,-183 -154,-233zm1658 -3215c-3,-1 -5,-2 -7,-4 0,0 0,0 1,-1 2,1 4,3 6,5zm271 569c0,-2 0,-5 0,-7 2,-17 5,-33 8,-45 4,13 17,36 32,49 -12,1 -25,2 -40,3zm-1594 2628c23,-1 46,-3 70,-5 -26,25 -48,55 -66,89 0,-28 -2,-56 -4,-84zm1964 -2289c90,-72 250,-235 308,-356 13,8 27,13 46,13 29,0 141,-119 137,-157 -2,-17 -9,-35 -18,-53 22,-15 44,-35 59,-63 32,-63 39,-132 32,-172 -8,-45 -24,-63 -44,-68 542,-1349 3305,-784 5335,-1812 21,29 40,61 58,97 42,110 77,204 98,291 -1926,1006 -3447,1865 -5537,2789 -49,-50 -91,-106 -108,-184 -33,-153 -14,-298 114,-408 56,-6 119,-1 200,17 135,30 172,-114 27,-144 -418,-85 -559,206 -790,490 -54,-76 -130,-129 -203,-180 103,-14 209,-38 286,-100zm23469 -4805c-132,-116 -215,-164 -327,-214 -315,-140 -188,144 -435,226 -99,-2 -120,-95 -200,-150 104,-185 84,-353 122,-495 31,-115 75,-224 105,-328 48,-105 121,-118 226,-126 70,-5 184,-9 274,-36 47,-14 81,-53 73,-71 49,-18 70,-59 69,-122 0,-34 -134,-40 -261,-103 -81,-40 -123,-91 -128,-138 -29,-28 -86,-62 -153,-89 -25,-11 -135,-40 -78,-81 75,13 149,26 214,22 87,-7 61,-130 -6,-124 -74,7 -153,7 -235,-9 -6,-1 -10,-5 -11,-10 -1,-6 2,-11 6,-14 29,-17 49,-36 67,-66 28,-49 -30,-96 -65,-52 -13,17 -27,41 -54,61 -81,59 -146,29 -224,-6 -75,-34 -104,-60 -93,-160 3,-30 14,-56 31,-70 36,-33 -47,-92 -83,-34 -21,35 -24,93 -17,147 0,5 -2,10 -7,13 -5,2 -10,2 -14,-1 -19,-14 -43,-32 -63,-50 -36,-32 -49,-78 -40,-131 9,-56 41,-124 88,-166 36,-33 24,-127 -37,-75 -3,3 -21,25 -33,44 -9,15 -29,27 -25,-2 4,-33 30,-89 50,-108 49,-49 -40,-106 -61,-64 -43,86 -68,190 -44,286 4,14 1,70 -17,75 -5,2 -10,0 -13,-5 -26,-35 -50,-71 -66,-111 -24,-57 -44,-133 21,-236 34,-54 61,-79 101,-100 64,-34 36,-126 -28,-83 -53,36 -114,106 -148,171 -3,5 -9,7 -15,6 -6,-1 -9,-6 -10,-12 -16,-75 -3,-212 62,-328 39,-71 -96,-110 -143,16 -107,287 -4,575 184,786 141,158 342,274 538,338 11,8 21,17 29,28 49,72 -44,52 -75,95 -89,-59 -168,-165 -237,-223 -3,77 2,154 18,222 -43,-27 -85,-55 -122,-78 41,190 136,363 269,384 -2,53 -7,110 -23,173 -43,121 -79,224 -125,308 -1924,-491 -3714,-609 -5433,-452 -1,-50 -3,-99 -6,-146 8,-116 72,-153 168,-197 63,-29 169,-72 244,-129 39,-29 58,-78 44,-92 40,-34 46,-79 22,-139 -12,-31 -139,10 -280,-5 -90,-10 -148,-43 -169,-85 -36,-16 -102,-28 -174,-31 -27,-1 -140,10 -102,-48 76,-14 149,-27 209,-54 79,-37 12,-143 -48,-114 -67,32 -142,59 -224,74 -6,1 -11,-2 -14,-7 -3,-4 -2,-10 1,-14 21,-26 33,-52 39,-86 10,-55 -61,-79 -78,-26 -6,20 -12,48 -30,76 -55,83 -127,78 -212,72 -82,-5 -118,-20 -143,-117 -7,-29 -6,-57 5,-77 22,-43 -76,-69 -89,-3 -8,40 9,96 34,144 3,5 2,10 -1,14 -4,4 -9,6 -14,5 -22,-7 -51,-15 -76,-25 -46,-18 -73,-56 -84,-109 -11,-55 -4,-130 25,-187 23,-43 -21,-127 -61,-56 -2,3 -11,30 -15,52 -3,17 -18,35 -24,7 -8,-33 -3,-94 9,-119 29,-63 -74,-85 -79,-39 -11,96 2,202 58,284 8,11 26,65 10,76 -4,3 -10,3 -14,0 -36,-24 -71,-50 -100,-81 -43,-46 -88,-110 -63,-229 13,-62 30,-95 60,-128 48,-55 -10,-131 -55,-69 -37,53 -70,140 -80,212 -1,6 -5,10 -11,11 -6,1 -11,-3 -14,-8 -41,-65 -76,-197 -56,-329 13,-80 -128,-70 -128,65 -1,306 196,540 446,672 187,99 416,139 622,130 13,4 26,9 37,17 71,50 -23,64 -37,115 -105,-24 -216,-97 -300,-127 24,73 55,144 94,202 -50,-10 -99,-22 -142,-31 105,164 254,293 386,266 16,51 31,106 38,170 2,107 4,199 -4,282 -805,92 -1596,244 -2379,445 -913,235 -1822,533 -2732,879 -5,-18 -10,-37 -15,-54 -18,-115 36,-165 119,-229 56,-42 149,-108 210,-180 31,-38 39,-89 22,-100 31,-42 27,-88 -9,-140 -18,-28 -134,40 -274,57 -90,11 -154,-9 -184,-45 -39,-8 -105,-5 -176,8 -27,5 -135,41 -110,-25 70,-29 139,-59 192,-98 68,-53 -21,-142 -73,-101 -59,47 -125,90 -202,122 -5,2 -11,1 -15,-3 -4,-4 -4,-10 -2,-15 15,-29 21,-57 19,-92 -3,-56 -77,-64 -82,-8 -2,21 -1,50 -13,81 -35,93 -106,104 -190,118 -81,13 -120,6 -165,-83 -14,-27 -19,-55 -13,-76 12,-47 -90,-51 -87,17 1,40 30,91 65,132 3,5 4,10 1,15 -2,4 -7,7 -12,7 -23,-2 -53,-3 -79,-7 -49,-8 -84,-39 -106,-87 -23,-52 -33,-127 -17,-188 12,-48 -49,-119 -72,-42 -1,3 -4,32 -3,54 0,18 -10,39 -23,13 -14,-31 -23,-91 -17,-119 14,-67 -91,-66 -86,-20 11,96 47,197 120,264 10,9 39,57 27,72 -3,4 -9,5 -14,3 -41,-16 -81,-32 -116,-57 -52,-35 -110,-87 -112,-209 -1,-64 9,-99 30,-139 35,-64 -38,-125 -68,-54 -25,60 -38,151 -32,224 1,6 -2,11 -8,13 -6,2 -11,0 -15,-4 -55,-54 -119,-176 -128,-309 -6,-81 -140,-39 -111,92 68,299 312,483 585,556 204,55 436,43 635,-11 13,1 27,3 39,8 81,33 -8,68 -10,121 -107,-1 -232,-47 -320,-58 39,67 86,128 136,177 -51,1 -101,0 -145,1 138,136 313,229 435,174 28,46 55,96 75,157 19,73 35,139 47,201 -1545,607 -3097,1351 -4683,2173 -20,-50 -39,-100 -60,-147 -32,-112 15,-168 91,-242 50,-49 134,-126 185,-205 27,-41 29,-93 11,-101 25,-46 15,-91 -27,-139 -22,-25 -128,57 -265,91 -88,21 -154,10 -188,-23 -40,-2 -105,8 -174,31 -26,8 -129,57 -112,-11 66,-38 131,-76 178,-122 61,-61 -38,-138 -85,-91 -52,53 -112,105 -185,146 -5,3 -11,2 -15,-1 -4,-4 -6,-9 -4,-15 11,-31 14,-59 8,-93 -10,-55 -85,-54 -83,2 1,21 6,49 -2,81 -24,98 -93,117 -175,141 -79,22 -118,21 -174,-62 -17,-25 -25,-52 -22,-74 6,-48 -95,-39 -85,28 7,40 41,86 81,123 4,4 6,9 4,14 -2,5 -6,8 -12,9 -23,1 -53,3 -79,3 -49,-2 -88,-28 -116,-74 -29,-49 -48,-122 -40,-185 6,-48 -63,-112 -77,-32 0,4 1,33 4,54 3,18 -5,40 -20,15 -19,-28 -35,-87 -33,-115 6,-69 -98,-55 -87,-10 23,94 71,190 151,247 12,8 46,53 36,69 -3,4 -9,6 -14,5 -42,-11 -84,-23 -122,-42 -55,-29 -119,-74 -136,-194 -9,-64 -4,-100 12,-142 27,-68 -53,-120 -74,-45 -18,62 -19,155 -4,226 1,6 -1,12 -7,14 -5,3 -11,1 -15,-3 -61,-46 -139,-159 -165,-290 -16,-79 -144,-22 -98,105 103,288 368,441 648,480 210,30 438,-11 629,-89 13,-1 27,-1 40,3 84,23 0,68 5,121 -107,13 -236,-18 -325,-18 47,61 101,117 156,159 -50,7 -100,12 -143,19 154,118 338,189 453,119 6,7 11,14 17,22 -2031,1010 -4855,366 -5452,1865 -47,2 -93,67 -113,108 -9,-4 -18,-9 -27,-13 -52,-20 -130,85 -154,115 -21,26 -20,50 -8,73 -97,84 -159,89 -238,199 -70,0 -102,1 -148,4 -9,-16 -9,-41 -15,-57 11,15 61,61 84,46 -24,-11 -32,-48 -48,-70 39,31 97,2 100,-29 -29,18 -40,-3 -62,-8 16,-5 25,-13 25,-31 -25,20 -60,5 -86,-17 25,8 48,-4 58,-24 -23,14 -31,9 -56,-6 -12,-7 -21,-16 -30,-23 19,-4 33,-19 38,-37 -25,21 -48,10 -72,-4 -2,-1 -3,-2 -4,-2 -1,-2 -2,-3 -4,-4 -11,-9 -20,-15 -43,-17 0,-1 0,-3 4,-6 -4,-8 -11,-10 -22,-4 4,-6 2,-15 -5,-16 -4,-2 -6,-3 -8,-4 2,-9 6,-5 8,2 6,-14 -1,-17 -1,-20 0,-3 8,2 13,16 2,-31 -14,-45 -25,-56 -11,-10 -25,-12 -41,-11 15,-5 30,-18 36,-34 18,-49 -39,-135 -78,-73 -11,17 -33,38 -50,20 10,-8 17,-21 19,-33 -3,8 -10,15 -18,19 7,-11 10,-24 9,-35 -1,11 -10,23 -20,30 -1,-7 -2,-15 -3,-23 12,-9 18,-31 13,-41 -3,3 -7,6 -10,6 10,-9 6,-27 -1,-31 1,9 -3,15 -10,21 9,-18 -8,-22 -13,-26 4,8 6,20 1,27 -5,-6 -17,-17 -26,-14 14,-18 24,-35 26,-50 0,-41 -124,-180 -173,-162 -20,7 -39,16 -59,27 -71,-20 -71,-81 -215,-86 -167,-6 -368,86 -387,188 -10,52 -35,233 -111,228 -59,-4 -171,60 -162,173 -4,1 -8,1 -12,3 -62,22 -95,90 -73,153 22,62 90,95 153,73 62,-22 95,-90 73,-153 -11,-33 -36,-57 -66,-70 9,-4 17,-7 23,-8 64,-12 99,55 156,39 61,-16 139,-174 139,-112 1,47 19,56 58,81 -4,11 -8,22 -11,33 -16,52 11,68 46,80 -27,8 -55,18 -71,30 -38,29 -40,69 -33,120 19,122 -43,253 48,240 -54,139 -87,299 -1,591 -53,-38 -106,-79 -159,-122l-65 -437c-6,-47 -50,-80 -97,-73l-152 22 -99 -238c-19,-44 -69,-64 -113,-46l-259 108c-14,-10 -27,-19 -40,-28 58,-40 107,-87 138,-140 -70,8 -140,8 -209,1 163,-115 301,-236 375,-336 -183,56 -457,68 -702,29 120,-87 218,-179 271,-260 -206,43 -437,28 -645,-12 113,-83 212,-178 263,-260 -220,56 -427,57 -613,28 99,-64 188,-140 232,-211 -175,45 -342,40 -491,11 63,-41 118,-92 149,-143 -239,25 -478,-85 -659,-198l222 -34 -183 -174 41 -249 -222 121 -224 -116 46 248 -180 177 251 33 113 226 87 -182c53,206 89,458 -2,676 67,-23 127,-59 178,-104 -14,152 -56,313 -151,470 82,-20 178,-87 268,-167 -24,188 -83,386 -203,584 81,-20 180,-74 277,-146 -4,35 -8,69 -13,104 -184,121 -342,286 -449,497 -148,289 288,434 392,214 53,-111 124,-200 207,-272 220,-62 474,66 619,297 182,291 12,555 -13,874 -42,534 157,881 644,985 -148,3 -244,121 -234,220 20,193 296,166 258,14 -9,-36 -45,-56 -80,-47 -35,9 -56,45 -47,80 6,20 19,35 37,43 -91,16 -139,-103 -80,-169 78,-87 171,-68 265,-16 125,69 180,248 98,332 -22,23 -65,36 -96,23 -36,-15 -60,-74 -17,-101 0,40 37,50 57,48 41,-4 73,-52 54,-95 -23,-53 -97,-50 -142,-14 -46,37 -66,114 -13,183 37,48 115,68 191,14 21,-15 38,-38 51,-65 -48,204 -170,386 -371,484 -10,5 -17,10 -20,14 -177,12 -325,5 -429,-28 137,-91 41,-307 -119,-264 -111,29 -147,171 -76,253 174,203 734,164 1370,22 1056,-236 2430,-727 2761,-882 550,-256 1380,-704 1376,-1346 -1,-233 -143,-485 -371,-551 -289,-84 -637,98 -710,357 -81,288 62,548 248,608 224,72 505,-109 430,-378 -38,-137 -177,-218 -314,-182 -75,21 -134,73 -165,139 -60,-115 -9,-255 113,-340 199,-138 594,-8 597,341 3,577 -865,1020 -1287,1214 -24,11 -53,24 -86,39 -1,-1 -1,-1 -1,-1 -114,-25 -228,-76 -333,-145 3,1 7,2 10,2 99,11 162,-50 170,-115 12,-93 -47,-154 -110,-163 -61,-10 -131,27 -125,89 5,50 61,77 101,59 20,-9 50,-37 29,-75 54,2 63,70 37,103 -22,29 -69,40 -101,31 -123,-35 -167,-231 -87,-363 60,-99 137,-167 256,-127 90,30 110,167 16,200 12,-16 17,-38 11,-59 -10,-38 -49,-60 -86,-50 -38,10 -61,49 -50,86 46,163 318,40 234,-150 -38,-84 -155,-139 -276,-106 42,-36 81,-74 116,-112 208,-231 195,-415 87,-590 -15,-24 -31,-45 -49,-65 2030,-884 3545,-1776 5398,-2750 -10,83 -44,139 -120,228 -106,124 -263,251 -397,325 -143,79 -170,93 -379,117 -301,35 -500,244 -554,443 -69,-29 -135,-108 -175,-181 -69,170 8,335 160,326l0 2c9,193 250,729 -156,609 -132,-40 -210,-47 -269,111 -33,88 -64,375 -102,544 -15,66 -42,166 -127,121 6,68 -92,71 -93,5 -82,-18 -234,38 -280,101 72,47 150,68 235,76 116,10 222,4 270,-19 56,-27 65,-94 88,-179 24,-89 82,-576 172,-567 9,1 18,2 26,4 -22,23 -39,59 -53,111 -24,90 -27,379 -49,551 -8,67 -25,169 -114,133 13,67 -85,79 -92,14 -83,-10 -230,61 -269,128 76,40 156,53 241,53 117,-1 222,-18 267,-46 53,-32 56,-99 70,-186 15,-91 26,-581 116,-581 112,0 195,21 331,76 241,97 410,55 514,-253 42,-128 52,-294 70,-429 31,-229 -19,-233 195,-335 161,-77 299,10 472,-51 391,-138 516,-442 964,-485 142,-13 188,-21 185,-114 -3,-75 22,-176 61,-238 35,-56 71,-89 137,-77 140,26 277,73 352,179 -5,-79 36,-63 89,6 24,31 25,53 63,63 39,12 142,-2 206,-22 -68,-88 -203,-176 -346,-236 -162,-67 -269,-106 -391,-116 -343,-30 -131,198 -337,356 -39,13 -78,19 -118,22 -49,4 -99,-10 -148,-23l0 -2c72,-44 141,-91 210,-126 128,-64 168,-88 131,-174 -29,-69 -47,-180 -33,-252 13,-64 39,-100 104,-113 140,-27 265,-47 374,25 -33,-73 11,-72 85,-27 34,21 43,40 82,37 41,-4 131,-54 184,-95 -96,-59 -253,-92 -408,-96 -175,-4 -270,14 -387,48 -331,96 -51,232 -186,454 -77,62 -153,4 -250,15 -40,-209 -164,-324 -226,-457 -2,-2 -3,-5 -4,-7 1582,-822 3109,-1582 4633,-2203 3,50 2,97 -7,142 -19,91 -59,142 -151,227 -120,109 -292,217 -434,273 -151,61 -180,71 -390,70 -304,-2 -527,180 -604,372 -65,-38 -121,-124 -152,-202 -89,161 -33,334 119,343l-1 2c-14,194 159,754 -229,585 -126,-55 -203,-72 -281,78 -43,83 -109,364 -168,527 -22,63 -62,159 -141,105 -2,68 -100,58 -92,-7 -79,-28 -238,9 -291,66 66,56 141,86 224,104 114,25 220,32 271,14 58,-20 76,-85 109,-166 34,-86 152,-562 240,-542 9,2 17,5 26,7 -25,20 -47,54 -67,104 -35,86 -74,373 -116,541 -16,65 -46,164 -130,118 5,68 -94,68 -93,2 -81,-20 -235,32 -282,94 70,49 148,72 233,82 116,13 222,10 270,-12 56,-26 67,-92 92,-177 26,-88 97,-573 186,-562 111,14 192,45 320,116 227,127 401,105 541,-188 58,-121 88,-284 123,-416 58,-224 9,-234 234,-309 169,-57 296,47 474,7 405,-89 567,-375 1017,-362 143,4 189,2 197,-91 7,-75 44,-172 91,-229 41,-51 81,-79 145,-59 136,42 265,106 327,221 5,-80 43,-59 88,16 20,35 18,56 54,71 38,16 141,15 207,4 -56,-97 -179,-201 -314,-277 -152,-87 -254,-138 -373,-164 -338,-71 -155,181 -379,312 -40,8 -80,10 -120,8 -48,-3 -96,-23 -144,-42l1 -1c76,-35 150,-74 224,-100 135,-48 177,-66 151,-156 -21,-72 -24,-184 -2,-254 21,-63 51,-95 117,-100 143,-9 269,-14 368,71 -24,-76 20,-70 88,-16 31,24 37,45 76,46 42,1 137,-37 195,-72 -88,-69 -240,-121 -393,-144 -173,-26 -269,-20 -390,0 -341,54 -79,223 -241,427 -83,52 -152,-14 -249,-16 -14,-212 -123,-341 -169,-481 -17,-52 -31,-104 -44,-155 905,-355 1811,-660 2727,-896 769,-198 1546,-353 2338,-454 -8,35 -18,68 -32,99 -38,84 -89,126 -197,188 -142,80 -333,146 -484,170 -161,25 -191,29 -396,-19 -296,-69 -554,59 -671,229 -56,-52 -91,-148 -104,-231 -122,137 -106,318 40,361l-1 2c-57,185 -13,771 -353,519 -112,-82 -183,-115 -292,14 -60,71 -187,330 -280,476 -37,57 -96,142 -162,71 -16,66 -110,35 -88,-27 -71,-45 -234,-44 -298,0 52,69 118,115 195,151 106,49 208,80 261,74 61,-6 93,-66 143,-138 53,-76 273,-513 354,-475 9,4 17,8 24,12 -28,15 -57,42 -88,87 -53,77 -154,347 -233,502 -30,60 -81,150 -153,86 -11,67 -107,46 -91,-19 -75,-37 -237,-20 -296,30 58,63 128,103 208,131 111,39 215,59 267,48 60,-12 86,-74 129,-151 45,-81 222,-538 306,-507 106,38 177,86 286,184 194,174 367,191 569,-63 84,-105 150,-258 213,-379 106,-205 61,-226 297,-249 178,-18 278,111 460,113 415,2 637,-240 1072,-128 139,36 184,44 213,-44 23,-72 81,-158 139,-204 51,-40 97,-59 154,-25 124,71 236,162 271,288 22,-76 55,-47 81,36 12,37 6,58 38,81 33,24 134,45 201,49 -34,-107 -131,-235 -245,-340 -129,-118 -217,-191 -328,-242 -313,-145 -190,141 -438,220 -41,-1 -80,-8 -119,-19 -47,-13 -89,-44 -131,-73l1 -1c82,-17 163,-38 241,-47 142,-17 187,-26 182,-119 -4,-75 17,-185 55,-248 33,-57 70,-82 136,-71 141,22 265,45 343,150 -7,-79 35,-64 89,4 25,31 26,52 64,62 40,10 142,-6 206,-27 -70,-87 -207,-172 -351,-228 -164,-63 -259,-79 -381,-87 -344,-22 -126,201 -329,364 -93,32 -145,-48 -240,-72 33,-209 -44,-360 -57,-506 -4,-36 -6,-72 -7,-107 1711,-175 3493,-85 5406,400 -19,31 -40,58 -64,83 -65,66 -127,87 -251,107 -160,26 -363,22 -513,-8 -159,-33 -189,-39 -364,-156 -253,-168 -539,-138 -709,-19 -34,-68 -33,-170 -17,-252 -163,85 -210,261 -89,352l-1 1c-117,154 -280,718 -512,364 -75,-115 -131,-171 -278,-89 -81,46 -290,245 -429,350 -53,40 -139,99 -175,10 -39,56 -116,-6 -74,-56 -51,-67 -203,-123 -279,-104 24,82 71,149 130,210 82,83 167,147 219,160 60,15 110,-30 183,-80 75,-53 434,-386 497,-322 6,7 12,14 18,20 -32,4 -68,19 -113,51 -77,53 -266,271 -393,389 -49,45 -129,112 -174,27 -33,60 -115,6 -78,-49 -58,-61 -215,-102 -288,-75 32,79 84,141 150,195 89,75 180,130 233,138 61,10 106,-40 174,-97 70,-59 395,-426 463,-368 85,72 136,142 204,272 121,230 278,307 555,138 115,-69 230,-189 331,-281 172,-155 136,-190 366,-130 172,45 221,201 392,266 388,147 680,-3 1049,253 118,82 158,106 215,33 47,-60 131,-120 201,-143 63,-20 112,-22 154,30 91,110 164,234 153,364 48,-64 69,-25 64,62 -2,40 -15,57 7,89 23,34 110,90 172,116 5,-111 -41,-265 -112,-403 -80,-156 -136,-255 -223,-342 -243,-244 -227,67 -487,54 -38,-15 -72,-36 -105,-59 -39,-29 -68,-72 -97,-114l1 -1c83,13 166,21 242,40 139,34 184,41 212,-48 22,-72 81,-168 138,-214 51,-41 94,-52 152,-19 124,70 233,135 269,260 22,-76 55,-48 83,35 12,38 6,58 38,81 34,23 135,43 202,46 -35,-106 -134,-233 -249,-336z"/>
   <polygon class="fil1" points="26045,4341 26071,4440 26173,4447 26086,4502 26112,4601 26033,4536 25946,4591 25984,4495 25905,4429 26007,4436 "/>
   <polygon class="fil1" points="21811,4963 21856,5141 22039,5153 21883,5251 21929,5429 21788,5311 21633,5410 21701,5239 21559,5122 21743,5134 "/>
   <polygon class="fil1" points="14865,6992 14845,7174 15013,7250 14833,7287 14813,7470 14722,7310 14542,7347 14666,7212 14574,7052 14742,7128 "/>
   <polygon class="fil1" points="10546,11358 10525,11541 10693,11616 10513,11653 10493,11836 10402,11676 10222,11714 10346,11578 10255,11419 10422,11494 "/>
   <polygon class="fil1" points="1158,11796 1138,11978 1305,12054 1125,12091 1106,12273 1015,12114 835,12151 959,12016 867,11856 1035,11932 "/>
   <polygon class="fil1" points="19974,4975 19999,5074 20102,5081 20015,5136 20040,5235 19961,5169 19875,5225 19913,5129 19833,5063 19936,5070 "/>
   <polygon class="fil1" points="13407,10024 13432,10124 13535,10130 13448,10185 13473,10285 13394,10219 13307,10274 13345,10178 13266,10113 13369,10120 "/>
   <polygon class="fil1" points="6245,11130 6270,11229 6373,11236 6285,11291 6311,11390 6232,11325 6145,11380 6183,11284 6104,11219 6207,11225 "/>
   <polygon class="fil1" points="4069,12428 4112,12595 4283,12606 4138,12698 4180,12865 4048,12754 3903,12847 3967,12687 3834,12577 4006,12588 "/>
   <polygon class="fil1" points="12670,7822 12763,7967 12930,7922 12821,8056 12915,8200 12754,8138 12646,8272 12655,8100 12494,8038 12661,7994 "/>
   <polygon class="fil1" points="18249,5894 18342,6039 18509,5994 18400,6127 18494,6272 18333,6210 18225,6344 18235,6172 18074,6110 18240,6066 "/>
   <polygon class="fil1" points="23270,4169 23363,4314 23530,4269 23421,4403 23515,4547 23354,4485 23246,4619 23255,4447 23095,4385 23261,4341 "/>
   <polygon class="fil1 str0" points="15876,9638 15886,9962 16197,10052 15892,10161 15903,10486 15704,10229 15399,10339 15582,10071 15383,9815 15694,9907 "/>
   <polygon class="fil1" points="9330,9964 9339,10288 9651,10378 9346,10488 9356,10812 9158,10555 8853,10666 9036,10398 8837,10142 9148,10233 "/>
   <polygon class="fil1" points="4299,13521 4309,13845 4621,13935 4315,14044 4326,14368 4128,14112 3822,14222 4005,13954 3806,13698 4117,13789 "/>
   <polygon class="fil1" points="1166,14689 1411,15121 1898,15020 1563,15387 1809,15818 1357,15612 1023,15980 1079,15486 625,15282 1112,15183 "/>
   <polygon class="fil1" points="11680,8778 11838,9250 12335,9243 11936,9539 12096,10010 11691,9721 11293,10019 11442,9544 11036,9258 11533,9253 "/>
   <polygon class="fil1" points="8016,12765 8026,13089 8337,13179 8032,13288 8043,13613 7844,13356 7539,13466 7722,13198 7523,12942 7834,13034 "/>
   <polygon class="fil1" points="14617,11120 14642,11220 14745,11227 14658,11281 14684,11381 14604,11315 14518,11370 14556,11275 14476,11209 14579,11216 "/>
   <polygon class="fil1" points="7009,15452 7034,15552 7137,15559 7049,15614 7075,15713 6996,15647 6909,15702 6947,15607 6868,15541 6971,15548 "/>
   <polygon class="fil1" points="6512,12963 6537,13063 6640,13069 6553,13124 6579,13224 6499,13158 6413,13213 6451,13118 6371,13052 6474,13059 "/>
   <polygon class="fil1" points="3625,15540 3650,15640 3753,15646 3665,15701 3691,15801 3612,15735 3525,15790 3563,15694 3484,15629 3587,15635 "/>
   <polygon class="fil1" points="16562,5859 16588,5959 16690,5965 16603,6020 16629,6120 16550,6054 16463,6109 16501,6014 16422,5948 16525,5955 "/>
   <polygon class="fil1" points="10232,12954 10326,13265 10651,13269 10385,13455 10481,13765 10222,13570 9957,13757 10063,13450 9803,13256 10127,13262 "/>
   <polygon class="fil1" points="5414,15747 5620,15998 5922,15878 5747,16152 5954,16402 5640,16320 5466,16594 5447,16270 5133,16189 5435,16071 "/>
   <polygon class="fil1" points="2348,12775 2512,13054 2828,12983 2613,13226 2778,13505 2481,13375 2267,13619 2298,13296 2000,13167 2317,13098 "/>
   <polygon class="fil1" points="12399,12187 12563,12467 12880,12396 12665,12639 12830,12918 12533,12788 12318,13031 12350,12708 12052,12580 12369,12510 "/>
   <polygon class="fil1" points="19939,6021 20103,6301 20420,6230 20204,6473 20370,6752 20072,6622 19858,6866 19890,6543 19592,6414 19909,6344 "/>
   <polygon class="fil1" points="9551,15058 9715,15337 10031,15266 9816,15509 9981,15788 9684,15658 9470,15902 9501,15579 9203,15450 9520,15381 "/>
   <polygon class="fil1" points="2568,18234 2732,18514 3049,18443 2833,18686 2999,18965 2701,18835 2487,19079 2518,18756 2221,18627 2537,18557 "/>
   <polygon class="fil1" points="5276,18890 5434,19361 5931,19355 5532,19651 5691,20121 5286,19833 4888,20130 5037,19656 4631,19369 5128,19365 "/>
   <polygon class="fil1" points="17229,8275 17254,8375 17357,8382 17269,8437 17295,8536 17216,8470 17129,8526 17167,8430 17088,8364 17191,8371 "/>
   <polygon class="fil1" points="11996,11052 12021,11151 12124,11158 12037,11213 12063,11312 11984,11247 11897,11302 11935,11206 11856,11141 11958,11147 "/>
   <polygon class="fil1" points="7983,11366 8008,11466 8111,11472 8023,11527 8049,11627 7970,11561 7883,11616 7921,11520 7842,11455 7945,11461 "/>
   <polygon class="fil1" points="726,17822 752,17922 854,17928 767,17983 793,18083 714,18017 627,18072 665,17977 586,17911 689,17918 "/>
   <polygon class="fil1" points="6521,17563 6547,17663 6649,17669 6562,17724 6588,17824 6509,17758 6422,17813 6460,17718 6381,17652 6483,17659 "/>
   <polygon class="fil1" points="6000,12028 6009,12352 6321,12442 6015,12551 6026,12876 5828,12619 5523,12729 5706,12461 5506,12205 5818,12297 "/>
   <polygon class="fil1" points="14016,8521 14192,8794 14505,8710 14300,8961 14477,9233 14174,9116 13970,9368 13988,9044 13685,8928 13999,8845 "/>
   <polygon class="fil1" points="18752,8482 18777,8582 18880,8588 18793,8643 18818,8743 18739,8677 18652,8732 18690,8636 18611,8571 18714,8578 "/>
   <polygon class="fil1" points="11463,14513 11488,14613 11591,14619 11504,14674 11529,14774 11450,14708 11363,14763 11401,14667 11322,14602 11425,14608 "/>
   <polygon class="fil1" points="8719,14325 8699,14508 8867,14583 8687,14620 8667,14803 8576,14643 8396,14681 8520,14545 8429,14386 8596,14461 "/>
   <polygon class="fil1" points="1238,19313 1248,19637 1559,19727 1254,19836 1265,20161 1066,19904 761,20014 944,19746 745,19490 1056,19582 "/>
   <polygon class="fil1" points="16638,7407 16681,7578 16857,7589 16708,7683 16752,7854 16616,7741 16467,7835 16533,7672 16397,7559 16573,7571 "/>
   <polygon class="fil1" points="9121,17447 9100,17630 9268,17705 9088,17742 9068,17925 8977,17765 8797,17803 8921,17667 8830,17507 8997,17583 "/>
   <path class="fil1" d="M5696 14056c81,5 142,75 137,156 -5,80 -75,142 -156,136 -81,-5 -142,-75 -137,-155 6,-81 75,-143 156,-137z"/>
   <path class="fil1" d="M18370 7096c81,6 142,75 137,156 -5,81 -75,143 -156,137 -81,-5 -142,-75 -137,-156 5,-81 75,-142 156,-137z"/>
   <path class="fil1" d="M13915 12691c81,5 142,75 137,156 -5,80 -75,142 -156,136 -81,-5 -142,-75 -137,-155 5,-81 75,-143 156,-137z"/>
   <path class="fil1" d="M7719 19562c81,6 142,75 137,156 -6,81 -75,142 -156,137 -81,-5 -142,-75 -137,-156 5,-81 75,-142 156,-137z"/>
   <path class="fil1" d="M2126 16739c81,5 142,75 137,156 -6,81 -76,142 -156,137 -81,-6 -143,-75 -137,-156 5,-81 75,-143 156,-137z"/>
   <path class="fil1" d="M304 13491c81,6 142,76 137,156 -5,81 -75,143 -156,137 -81,-5 -142,-75 -137,-156 5,-81 75,-142 156,-137z"/>
   <path class="fil1" d="M21973 4121c44,3 77,41 75,85 -3,44 -41,78 -86,75 -44,-3 -77,-41 -74,-85 3,-44 41,-78 85,-75z"/>
   <path class="fil1" d="M21207 6024c45,3 78,41 75,85 -3,44 -41,77 -85,74 -44,-2 -77,-40 -75,-85 3,-44 41,-77 85,-74z"/>
   <path class="fil1" d="M24787 4438c44,3 78,41 75,85 -3,44 -41,77 -85,74 -44,-2 -78,-41 -75,-85 3,-44 41,-77 85,-74z"/>
   <path class="fil1" d="M15377 8507c44,2 77,40 74,85 -3,44 -41,77 -85,74 -44,-3 -77,-41 -74,-85 2,-44 41,-77 85,-74z"/>
   <path class="fil1" d="M9122 12165c44,3 77,41 75,85 -3,44 -41,78 -86,75 -44,-3 -77,-41 -74,-85 3,-44 41,-78 85,-75z"/>
   <path class="fil1" d="M4201 17515c44,3 78,41 75,85 -3,44 -41,78 -85,75 -44,-3 -78,-41 -75,-85 3,-44 41,-78 85,-75z"/>
   <path class="fil1" d="M7663 16510c44,3 78,41 75,85 -3,44 -41,78 -85,75 -45,-3 -78,-41 -75,-85 3,-44 41,-78 85,-75z"/>
   <path class="fil1" d="M3227 20581c44,3 77,41 74,85 -3,44 -41,78 -85,75 -44,-3 -77,-41 -74,-85 2,-44 40,-78 85,-75z"/>
  </g>
 </g>
</svg>
